<svg version="1.1" id="Layer_1" xmlns="http://www.w3.org/2000/svg" xmlns:xlink="http://www.w3.org/1999/xlink" x="0px" y="0px"
	 width="100%" viewBox="0 0 1024 672" enable-background="new 0 0 1024 672" xml:space="preserve">
<path fill="#000000" opacity="1.000000" stroke="none" 
	d="
M324.458069,673.000000 
	C326.150269,670.296509 326.180756,666.845642 327.260834,663.764832 
	C327.558502,662.915833 327.637238,661.920471 326.911102,661.460876 
	C322.998535,658.984863 323.993073,655.438599 325.008423,652.133789 
	C326.107910,648.555054 326.610840,645.232727 324.671326,641.751404 
	C323.658081,639.932739 324.372894,637.864197 324.735779,635.881836 
	C325.234619,633.156555 325.922272,630.535095 323.846375,627.835510 
	C322.390900,625.942627 323.132721,623.408203 324.113434,621.148010 
	C325.698151,617.495789 327.340332,613.857239 327.371704,609.716309 
	C327.383698,608.131775 327.356842,606.539246 326.205750,605.531738 
	C320.664673,600.681946 321.398102,594.652527 323.294312,588.730286 
	C326.020111,580.217163 324.864044,571.908875 323.055145,563.515503 
	C322.778778,562.233093 322.488953,560.717102 322.903931,559.559570 
	C326.259491,550.200439 320.854553,543.141235 316.655090,535.879395 
	C315.082031,533.159241 313.265930,530.685913 312.236115,527.606628 
	C310.836792,523.422668 306.966156,522.357361 304.139496,525.367004 
	C297.096375,532.866089 287.361053,533.549500 278.317322,535.905701 
	C274.807648,536.820068 271.048676,536.735474 267.430176,537.283508 
	C260.766876,538.292847 255.568939,536.033691 250.992477,531.118652 
	C246.029770,525.788818 242.749359,519.490967 239.179932,513.290894 
	C230.294891,497.857544 215.809479,489.082123 199.856476,483.468292 
	C183.720901,477.790131 177.573898,465.014313 175.971390,449.987000 
	C175.461960,445.209869 175.865463,440.354187 176.714844,435.549774 
	C178.962784,422.834534 178.214828,410.343475 173.608185,398.161255 
	C167.731430,382.620453 169.141129,365.888245 165.892578,349.963531 
	C161.460373,328.236420 167.903564,307.882050 172.980576,287.536743 
	C177.020294,271.348236 181.146088,255.298599 183.024185,238.685104 
	C184.818329,222.814056 192.581329,209.822449 201.956482,197.031754 
	C211.040222,184.638626 223.552475,176.802307 236.061844,170.162323 
	C250.881424,162.296097 267.030121,156.361801 283.007538,150.744034 
	C288.719299,148.735748 294.770142,147.477402 300.301819,144.781403 
	C304.013763,142.972275 306.556976,140.004913 308.772736,136.552139 
	C312.076294,131.404297 315.836243,126.530983 316.878967,120.273308 
	C316.905518,120.114021 316.968414,119.923553 317.081146,119.821182 
	C325.922272,111.793404 322.029938,100.450859 324.630585,90.800827 
	C324.888794,89.842690 324.920929,88.821175 325.203796,87.872551 
	C327.027374,81.757187 328.013489,75.688019 326.274048,69.279114 
	C324.858429,64.063248 327.024109,59.610622 331.132019,54.897469 
	C335.812256,64.130775 344.187256,67.070946 353.041840,69.281029 
	C357.460632,70.383957 361.608459,70.312431 365.416901,67.456230 
	C369.367584,64.493362 373.254639,64.793571 377.506073,67.181679 
	C383.974609,70.815163 388.982239,76.265236 394.891754,80.590385 
	C398.436432,83.184731 401.995819,85.089050 406.291199,84.830864 
	C411.936798,84.491516 416.259460,86.811340 420.153259,90.515633 
	C421.840820,92.121078 423.731659,93.514191 425.404053,95.133972 
	C429.873199,99.462502 434.803192,99.691864 440.081848,96.904976 
	C445.705383,93.936005 451.391693,90.800430 457.852051,90.642761 
	C467.947601,90.396408 478.143311,89.861374 488.007935,92.840683 
	C501.449310,96.900246 515.091187,98.525681 528.945435,95.772522 
	C536.181030,94.334633 542.075623,90.274734 546.671631,84.424263 
	C552.508850,76.993805 556.350403,76.343544 565.360352,78.151192 
	C579.850037,81.058220 594.489746,83.717537 609.380188,80.642967 
	C610.682922,80.373970 612.035034,79.946022 613.322266,80.061249 
	C626.882202,81.275032 639.752869,77.702728 652.717712,74.629112 
	C657.868408,73.408020 663.255798,74.072197 667.981201,75.840675 
	C677.658020,79.462189 687.794373,81.609787 697.321289,85.737900 
	C703.855042,88.569077 710.865784,90.324783 717.712769,92.397926 
	C721.527710,93.553024 724.490906,95.773125 727.198608,98.597748 
	C734.109680,105.807526 741.067749,112.912865 749.526489,118.469177 
	C758.046265,124.065659 762.700989,133.371429 769.494873,140.645126 
	C780.341064,152.257477 788.938110,165.549881 798.019165,178.469742 
	C805.072205,188.504272 814.963867,195.004517 825.395386,200.540817 
	C850.802246,214.024979 868.049011,234.590683 879.619385,260.494751 
	C887.254456,277.588501 891.932373,295.331451 891.945679,314.126984 
	C891.952820,324.231812 889.145752,333.946472 886.457153,343.525757 
	C883.128479,355.385040 881.356201,367.292511 882.046021,379.551514 
	C882.997742,396.464905 880.572998,412.935638 874.195007,428.532593 
	C866.679626,446.910919 854.402649,461.437164 836.767212,471.245789 
	C829.526611,475.272888 822.757690,480.147369 815.766846,484.624878 
	C814.651123,485.339447 813.574890,486.338318 812.346680,486.617828 
	C805.570740,488.159790 800.341064,492.465302 795.248657,496.646149 
	C789.094727,501.698486 782.401733,506.438446 777.202515,512.257324 
	C770.937378,519.269226 763.596741,524.925232 757.041382,531.493713 
	C749.317383,539.233154 739.333862,542.652649 729.179993,545.006042 
	C719.048950,547.354187 709.251221,550.124939 700.407715,555.690247 
	C695.830139,558.571045 690.839172,560.364990 685.612976,561.549744 
	C676.804565,563.546509 671.417664,568.844788 669.308594,577.685669 
	C667.589844,584.890198 665.870361,585.380737 658.690857,584.213135 
	C633.400940,580.100159 608.289673,580.226135 583.842468,589.119202 
	C575.747253,592.063965 567.290100,592.854797 558.889465,593.972412 
	C549.321106,595.245483 540.453369,597.825500 532.723267,604.052795 
	C526.036438,609.439697 517.968628,610.632080 509.547852,609.929016 
	C504.574677,609.513794 499.581482,609.340271 494.607147,608.936401 
	C487.280762,608.341492 480.020020,607.521240 473.614685,603.328613 
	C470.923004,601.566711 467.836700,600.959229 464.578796,600.820129 
	C462.111176,600.714783 459.306244,600.617798 457.278992,599.438354 
	C447.772339,593.907776 438.400696,597.173584 429.452759,600.193909 
	C424.320984,601.926086 419.431458,605.583618 415.528870,609.473816 
	C409.283417,615.699646 402.056915,620.798584 396.060028,627.261780 
	C394.051392,629.426575 391.265930,630.656738 388.460297,630.692932 
	C376.656708,630.845154 365.051239,633.708435 353.178894,633.033875 
	C349.994965,632.852966 347.521423,631.615051 344.838684,630.251160 
	C339.736359,627.657104 337.677795,629.049377 337.557617,634.689636 
	C337.337067,645.041382 337.162628,655.396179 336.732513,665.739868 
	C336.639008,667.989075 335.549591,670.197021 334.959442,672.711975 
	C331.638702,673.000000 328.277435,673.000000 324.458069,673.000000 
M556.739868,195.768784 
	C554.727783,199.815598 552.662720,203.837830 550.761597,207.936096 
	C550.480896,208.541122 551.122009,209.514801 551.075134,210.302368 
	C551.018311,211.257629 550.999817,212.516846 550.418274,213.090714 
	C546.358582,217.096664 548.275330,223.188202 544.961609,227.695053 
	C542.729126,230.731369 542.663147,235.277451 541.190247,238.973679 
	C538.555359,245.585907 535.413757,251.863937 533.483337,258.903534 
	C531.170227,267.338470 526.882263,275.478088 523.798218,283.681915 
	C521.425842,289.992584 519.153503,296.814911 516.955872,303.352173 
	C510.911255,321.333282 503.947479,339.037598 496.560089,356.518738 
	C493.746643,363.176422 491.796234,370.108978 488.860382,376.685913 
	C485.599152,383.991760 483.845398,391.908997 479.311890,398.721710 
	C475.537354,404.393860 473.923737,411.162262 471.879333,417.523956 
	C469.895752,423.696259 467.037262,429.487915 465.027435,435.636780 
	C463.578491,440.069763 461.010925,444.408783 459.320068,448.707367 
	C457.985870,452.099243 457.102692,455.818298 455.494232,459.373413 
	C452.375488,466.266846 448.302948,472.982147 449.055847,481.135956 
	C449.405945,484.927673 454.175964,489.143585 457.976776,488.931915 
	C464.804688,488.551819 471.618073,488.224365 478.500854,488.674500 
	C482.441528,488.932251 486.060944,486.874451 488.654816,483.208649 
	C491.164368,479.661987 491.709717,475.187378 493.599304,471.942108 
	C497.213348,465.735046 498.441742,458.802399 501.541412,452.506897 
	C504.007568,447.498016 503.835907,441.117401 507.412323,436.436829 
	C510.316223,432.636353 510.722198,428.043030 512.067322,423.864319 
	C514.134277,417.443054 517.263123,411.411835 518.898743,404.921783 
	C519.722900,401.651855 524.070740,400.188690 522.940369,396.462708 
	C522.257019,394.210297 523.028564,392.489624 523.876709,390.768555 
	C526.231995,385.989410 528.188721,381.164062 529.855042,376.024719 
	C534.489075,361.732178 540.280701,347.809723 545.771057,333.802216 
	C548.587280,326.617065 551.973267,319.721466 554.216370,312.230957 
	C556.196106,305.620117 557.877808,298.435974 563.373474,293.283112 
	C564.061096,292.638306 564.386169,290.917908 564.047424,290.004211 
	C563.226135,287.788574 564.198669,286.025024 565.023315,284.284698 
	C568.193787,277.593689 570.018066,270.424988 573.714417,263.792816 
	C576.003357,259.685822 576.901978,253.639435 579.089966,249.215530 
	C583.243347,240.817917 584.789612,231.364410 589.865112,223.533615 
	C592.818787,218.976395 591.317749,213.517960 594.200623,209.017746 
	C598.693726,202.003952 600.682434,194.066238 601.511414,185.793701 
	C601.979187,181.126663 599.505066,177.398010 594.779602,177.185333 
	C586.620911,176.818115 578.686035,173.689621 570.158875,176.853210 
	C566.451050,178.228821 563.465027,179.376114 561.720093,182.786423 
	C559.705505,186.723724 557.220276,190.518234 556.739868,195.768784 
M733.579041,363.045013 
	C742.944275,356.735779 751.900940,349.905670 760.358093,342.408447 
	C764.399109,338.826111 768.345703,329.253326 765.650208,325.778809 
	C761.804321,320.821350 756.686768,316.781586 751.805115,312.719025 
	C748.112671,309.646088 743.598083,307.520355 740.090088,304.279541 
	C737.352051,301.750031 734.469055,299.209137 731.381104,297.542145 
	C726.461365,294.886292 722.300598,291.265564 717.867126,288.083008 
	C712.110474,283.950623 706.634216,279.058899 700.755188,275.391876 
	C691.690491,269.737793 684.362793,261.923706 674.947571,256.739990 
	C668.122498,252.982330 662.474670,247.144714 656.270569,242.345245 
	C651.485901,238.643799 646.189941,235.303314 641.491272,231.439072 
	C636.500854,227.334839 625.848206,226.725983 622.942017,232.229416 
	C620.195251,237.431107 616.825806,242.412231 615.112244,248.235641 
	C613.643616,253.226791 614.831848,256.825867 618.492249,260.311432 
	C622.044922,263.694427 625.945923,266.507324 629.943420,269.296387 
	C636.338623,273.758270 642.046814,279.109467 648.094788,284.007812 
	C655.924011,290.348846 664.465393,295.810150 672.693420,301.659546 
	C677.466919,305.053070 681.549988,309.232697 686.696411,312.303284 
	C694.297546,316.838409 701.277344,322.442780 708.354431,327.812439 
	C710.695801,329.588928 711.929993,333.004028 708.726501,334.323486 
	C704.702637,335.980804 702.444153,339.306000 699.212341,341.624207 
	C693.027893,346.060333 686.856445,350.514648 680.652527,354.923340 
	C677.522644,357.147491 674.128845,359.268890 671.398499,361.734680 
	C665.714417,366.868256 659.132080,370.744293 653.435364,375.834351 
	C648.652344,380.107971 643.208679,383.709137 637.779175,387.171631 
	C633.161438,390.116577 629.616638,394.338440 625.009033,397.211456 
	C620.985657,399.720245 616.297974,400.973633 614.999939,406.873169 
	C614.053284,411.175873 615.254639,422.616699 618.216797,426.044189 
	C621.709778,430.085907 625.500610,433.742584 629.652710,436.664581 
	C636.519409,436.294891 642.122742,433.691437 647.484680,429.305389 
	C650.471924,426.861847 652.855347,423.589539 656.346252,421.792297 
	C665.161743,417.253784 672.674500,410.582642 680.109680,404.459106 
	C688.412842,397.620728 697.758484,392.179626 705.578491,384.555023 
	C713.777527,376.560822 723.787231,370.423706 733.579041,363.045013 
M374.644257,367.163300 
	C369.956207,364.084717 365.060455,361.276794 360.623352,357.871277 
	C351.348236,350.752472 342.075378,343.644379 332.540985,336.868713 
	C327.356812,333.184601 327.499176,331.950562 332.510742,327.762299 
	C333.147247,327.230377 333.829102,326.748688 334.515228,326.280731 
	C340.623718,322.114716 347.801758,318.682220 352.618561,313.634216 
	C362.012634,303.789185 373.885864,297.537018 384.149719,289.052765 
	C395.633606,279.560028 407.620667,270.457092 420.001038,262.005554 
	C423.020142,259.944550 424.852142,252.526871 423.647614,249.076462 
	C421.725586,243.570786 417.992950,239.147461 415.002014,234.276321 
	C411.533051,228.626648 402.974976,225.508514 397.936737,229.020187 
	C392.054779,233.119919 386.845551,238.056808 380.689911,241.978668 
	C375.349579,245.381073 370.887695,250.339096 365.518097,254.048477 
	C362.809265,255.919769 359.568451,257.664642 357.556366,259.755402 
	C352.391846,265.121857 345.959930,268.648621 340.386383,273.344910 
	C335.116943,277.785004 328.628082,281.236938 323.793732,285.782227 
	C314.333160,294.677063 302.853119,300.613861 293.161896,309.097626 
	C288.422607,313.246368 282.736786,316.449188 278.969757,321.677490 
	C273.097809,329.827271 272.228302,333.721985 278.969818,342.217804 
	C283.624207,348.083405 290.366028,351.159424 295.864594,355.900146 
	C305.042114,363.812653 315.473114,370.251343 325.082489,377.690216 
	C331.214600,382.437195 337.630798,386.777405 343.575989,391.835846 
	C351.852905,398.878143 361.127289,404.738403 369.867950,411.247955 
	C379.460419,418.391815 388.885834,425.759979 398.475983,432.907013 
	C402.950226,436.241455 411.721344,434.137299 414.447998,429.392517 
	C415.937866,426.799896 417.441742,424.171631 419.289398,421.836456 
	C425.137329,414.445221 424.290405,405.174835 416.921600,399.431549 
	C409.584595,393.713013 402.382660,387.770111 394.668091,382.602417 
	C387.784851,377.991608 381.732849,372.373840 374.644257,367.163300 
z"/>
<path fill="#000000" opacity="1.000000" stroke="none" 
	d="
M330.932007,44.132675 
	C331.845673,44.550617 332.587799,44.792137 332.878906,45.294834 
	C334.278564,47.711838 335.233398,50.413372 332.218964,52.153496 
	C329.479065,53.735130 327.907959,51.579918 326.999756,49.340908 
	C325.651855,46.018097 327.189606,44.363483 330.932007,44.132675 
z"/>
<path fill="#000000" opacity="1.000000" stroke="none" 
	d="
M328.430298,30.710781 
	C332.918579,32.686600 332.943024,33.977516 328.622437,36.955612 
	C327.473938,34.957554 326.258148,33.096989 328.430298,30.710781 
z"/>
<path fill="#000000" opacity="1.000000" stroke="none" 
	d="
M54.010258,361.568176 
	C53.897430,358.521240 53.664700,355.781738 54.957813,353.186890 
	C55.966557,355.487396 55.602730,357.949188 56.463203,360.230286 
	C56.924297,361.452667 56.445408,361.656647 54.010258,361.568176 
z"/>
</svg>